<svg xmlns="http://www.w3.org/2000/svg" xmlns:xlink="http://www.w3.org/1999/xlink" width="1080" zoomAndPan="magnify" viewBox="0 0 810 809.999993" height="1080" preserveAspectRatio="xMidYMid meet" version="1.0"><defs><clipPath id="e52d701198"><path d="M 339.023438 410.761719 L 471.023438 410.761719 L 471.023438 542.761719 L 339.023438 542.761719 Z M 339.023438 410.761719 " clip-rule="nonzero"/></clipPath><clipPath id="8182167bba"><path d="M 471.023438 476.761719 C 471.023438 477.84375 470.996094 478.921875 470.941406 480 C 470.890625 481.078125 470.808594 482.15625 470.703125 483.230469 C 470.597656 484.304688 470.464844 485.378906 470.308594 486.445312 C 470.148438 487.515625 469.964844 488.578125 469.753906 489.636719 C 469.542969 490.695312 469.304688 491.75 469.042969 492.796875 C 468.78125 493.847656 468.492188 494.886719 468.179688 495.921875 C 467.867188 496.953125 467.527344 497.980469 467.164062 498.996094 C 466.800781 500.011719 466.410156 501.019531 465.996094 502.019531 C 465.585938 503.015625 465.148438 504.003906 464.683594 504.980469 C 464.222656 505.957031 463.738281 506.921875 463.226562 507.875 C 462.71875 508.828125 462.1875 509.765625 461.632812 510.691406 C 461.078125 511.617188 460.5 512.53125 459.898438 513.429688 C 459.296875 514.328125 458.675781 515.210938 458.035156 516.078125 C 457.390625 516.945312 456.726562 517.796875 456.039062 518.632812 C 455.355469 519.464844 454.648438 520.285156 453.925781 521.085938 C 453.199219 521.886719 452.453125 522.667969 451.691406 523.429688 C 450.925781 524.195312 450.144531 524.9375 449.34375 525.664062 C 448.542969 526.390625 447.726562 527.09375 446.890625 527.78125 C 446.058594 528.464844 445.207031 529.128906 444.335938 529.773438 C 443.46875 530.417969 442.585938 531.039062 441.6875 531.640625 C 440.792969 532.238281 439.878906 532.816406 438.953125 533.371094 C 438.027344 533.925781 437.085938 534.460938 436.132812 534.96875 C 435.179688 535.476562 434.214844 535.964844 433.242188 536.425781 C 432.265625 536.886719 431.277344 537.324219 430.277344 537.738281 C 429.28125 538.152344 428.273438 538.539062 427.257812 538.902344 C 426.238281 539.265625 425.214844 539.605469 424.179688 539.917969 C 423.148438 540.234375 422.105469 540.519531 421.058594 540.785156 C 420.011719 541.046875 418.957031 541.28125 417.898438 541.492188 C 416.839844 541.703125 415.773438 541.890625 414.707031 542.046875 C 413.636719 542.207031 412.566406 542.339844 411.492188 542.445312 C 410.414062 542.550781 409.339844 542.628906 408.261719 542.683594 C 407.179688 542.734375 406.101562 542.761719 405.023438 542.761719 C 403.941406 542.761719 402.863281 542.734375 401.785156 542.683594 C 400.703125 542.628906 399.628906 542.550781 398.550781 542.445312 C 397.476562 542.339844 396.40625 542.207031 395.335938 542.046875 C 394.269531 541.890625 393.207031 541.703125 392.144531 541.492188 C 391.085938 541.28125 390.03125 541.046875 388.984375 540.785156 C 387.9375 540.519531 386.898438 540.234375 385.863281 539.917969 C 384.828125 539.605469 383.804688 539.265625 382.785156 538.902344 C 381.769531 538.539062 380.761719 538.152344 379.765625 537.738281 C 378.765625 537.324219 377.78125 536.886719 376.804688 536.425781 C 375.828125 535.964844 374.863281 535.476562 373.910156 534.96875 C 372.957031 534.460938 372.015625 533.925781 371.089844 533.371094 C 370.164062 532.816406 369.253906 532.238281 368.355469 531.640625 C 367.457031 531.039062 366.574219 530.417969 365.707031 529.773438 C 364.839844 529.128906 363.988281 528.464844 363.152344 527.78125 C 362.316406 527.09375 361.5 526.390625 360.699219 525.664062 C 359.898438 524.9375 359.117188 524.195312 358.351562 523.429688 C 357.589844 522.667969 356.84375 521.886719 356.117188 521.085938 C 355.394531 520.285156 354.6875 519.464844 354.003906 518.632812 C 353.316406 517.796875 352.652344 516.945312 352.011719 516.078125 C 351.367188 515.210938 350.746094 514.328125 350.144531 513.429688 C 349.542969 512.53125 348.96875 511.617188 348.410156 510.691406 C 347.855469 509.765625 347.324219 508.828125 346.816406 507.875 C 346.304688 506.921875 345.820312 505.957031 345.359375 504.980469 C 344.898438 504.003906 344.457031 503.015625 344.046875 502.019531 C 343.632812 501.019531 343.242188 500.011719 342.878906 498.996094 C 342.515625 497.980469 342.175781 496.953125 341.863281 495.921875 C 341.550781 494.886719 341.261719 493.847656 341 492.796875 C 340.738281 491.75 340.5 490.695312 340.289062 489.636719 C 340.078125 488.578125 339.894531 487.515625 339.734375 486.445312 C 339.578125 485.378906 339.445312 484.304688 339.339844 483.230469 C 339.234375 482.15625 339.152344 481.078125 339.101562 480 C 339.046875 478.921875 339.023438 477.84375 339.023438 476.761719 C 339.023438 475.679688 339.046875 474.601562 339.101562 473.523438 C 339.152344 472.445312 339.234375 471.367188 339.339844 470.292969 C 339.445312 469.21875 339.578125 468.144531 339.734375 467.078125 C 339.894531 466.007812 340.078125 464.945312 340.289062 463.886719 C 340.5 462.828125 340.738281 461.773438 341 460.726562 C 341.261719 459.675781 341.550781 458.636719 341.863281 457.601562 C 342.175781 456.570312 342.515625 455.542969 342.878906 454.527344 C 343.242188 453.511719 343.632812 452.503906 344.046875 451.503906 C 344.457031 450.507812 344.898438 449.519531 345.359375 448.542969 C 345.820312 447.566406 346.304688 446.601562 346.816406 445.648438 C 347.324219 444.695312 347.855469 443.757812 348.410156 442.832031 C 348.96875 441.90625 349.542969 440.992188 350.144531 440.09375 C 350.746094 439.195312 351.367188 438.3125 352.011719 437.445312 C 352.652344 436.578125 353.316406 435.726562 354.003906 434.890625 C 354.6875 434.058594 355.394531 433.238281 356.117188 432.4375 C 356.84375 431.636719 357.589844 430.855469 358.351562 430.09375 C 359.117188 429.328125 359.898438 428.585938 360.699219 427.859375 C 361.5 427.132812 362.316406 426.429688 363.152344 425.742188 C 363.988281 425.058594 364.839844 424.394531 365.707031 423.75 C 366.574219 423.105469 367.457031 422.484375 368.355469 421.882812 C 369.253906 421.285156 370.164062 420.707031 371.089844 420.152344 C 372.015625 419.597656 372.957031 419.0625 373.910156 418.554688 C 374.863281 418.046875 375.828125 417.558594 376.804688 417.097656 C 377.78125 416.636719 378.765625 416.199219 379.765625 415.785156 C 380.761719 415.371094 381.769531 414.984375 382.785156 414.621094 C 383.804688 414.257812 384.828125 413.917969 385.863281 413.605469 C 386.898438 413.289062 387.9375 413.003906 388.984375 412.738281 C 390.03125 412.476562 391.085938 412.242188 392.144531 412.03125 C 393.207031 411.820312 394.269531 411.632812 395.335938 411.476562 C 396.40625 411.316406 397.476562 411.183594 398.550781 411.078125 C 399.628906 410.972656 400.703125 410.894531 401.785156 410.839844 C 402.863281 410.789062 403.941406 410.761719 405.023438 410.761719 C 406.101562 410.761719 407.179688 410.789062 408.261719 410.839844 C 409.339844 410.894531 410.414062 410.972656 411.492188 411.078125 C 412.566406 411.183594 413.636719 411.316406 414.707031 411.476562 C 415.773438 411.632812 416.839844 411.820312 417.898438 412.03125 C 418.957031 412.242188 420.011719 412.476562 421.058594 412.738281 C 422.105469 413.003906 423.148438 413.289062 424.179688 413.605469 C 425.214844 413.917969 426.238281 414.257812 427.257812 414.621094 C 428.273438 414.984375 429.28125 415.371094 430.277344 415.785156 C 431.277344 416.199219 432.265625 416.636719 433.242188 417.097656 C 434.214844 417.558594 435.179688 418.046875 436.132812 418.554688 C 437.085938 419.0625 438.027344 419.597656 438.953125 420.152344 C 439.878906 420.707031 440.792969 421.285156 441.6875 421.882812 C 442.585938 422.484375 443.46875 423.105469 444.335938 423.75 C 445.207031 424.394531 446.058594 425.058594 446.890625 425.742188 C 447.726562 426.429688 448.542969 427.132812 449.34375 427.859375 C 450.144531 428.585938 450.925781 429.328125 451.691406 430.09375 C 452.453125 430.855469 453.199219 431.636719 453.925781 432.4375 C 454.648438 433.238281 455.355469 434.058594 456.039062 434.890625 C 456.726562 435.726562 457.390625 436.578125 458.035156 437.445312 C 458.675781 438.3125 459.296875 439.195312 459.898438 440.09375 C 460.5 440.992188 461.078125 441.90625 461.632812 442.832031 C 462.1875 443.757812 462.71875 444.695312 463.226562 445.648438 C 463.738281 446.601562 464.222656 447.566406 464.683594 448.542969 C 465.148438 449.519531 465.585938 450.507812 465.996094 451.503906 C 466.410156 452.503906 466.800781 453.511719 467.164062 454.527344 C 467.527344 455.542969 467.867188 456.570312 468.179688 457.601562 C 468.492188 458.636719 468.78125 459.675781 469.042969 460.726562 C 469.304688 461.773438 469.542969 462.828125 469.753906 463.886719 C 469.964844 464.945312 470.148438 466.007812 470.308594 467.078125 C 470.464844 468.144531 470.597656 469.21875 470.703125 470.292969 C 470.808594 471.367188 470.890625 472.445312 470.941406 473.523438 C 470.996094 474.601562 471.023438 475.679688 471.023438 476.761719 Z M 471.023438 476.761719 " clip-rule="nonzero"/></clipPath><linearGradient x1="50" gradientTransform="matrix(1.389474, 0, 0, 1.389474, 335.548001, 407.288066)" y1="97.499999" x2="50" gradientUnits="userSpaceOnUse" y2="2.499998" id="17510eddaa"><stop stop-opacity="1" stop-color="rgb(83.666992%, 8.856201%, 8.877563%)" offset="0"/><stop stop-opacity="1" stop-color="rgb(83.772278%, 9.014893%, 9.049988%)" offset="0.015625"/><stop stop-opacity="1" stop-color="rgb(83.981323%, 9.333801%, 9.394836%)" offset="0.03125"/><stop stop-opacity="1" stop-color="rgb(84.190369%, 9.65271%, 9.741211%)" offset="0.046875"/><stop stop-opacity="1" stop-color="rgb(84.40094%, 9.971619%, 10.087585%)" offset="0.0625"/><stop stop-opacity="1" stop-color="rgb(84.609985%, 10.292053%, 10.432434%)" offset="0.078125"/><stop stop-opacity="1" stop-color="rgb(84.819031%, 10.610962%, 10.778809%)" offset="0.09375"/><stop stop-opacity="1" stop-color="rgb(85.028076%, 10.929871%, 11.123657%)" offset="0.109375"/><stop stop-opacity="1" stop-color="rgb(85.238647%, 11.248779%, 11.470032%)" offset="0.125"/><stop stop-opacity="1" stop-color="rgb(85.447693%, 11.567688%, 11.816406%)" offset="0.140625"/><stop stop-opacity="1" stop-color="rgb(85.656738%, 11.888123%, 12.161255%)" offset="0.15625"/><stop stop-opacity="1" stop-color="rgb(85.865784%, 12.207031%, 12.507629%)" offset="0.171875"/><stop stop-opacity="1" stop-color="rgb(86.076355%, 12.52594%, 12.854004%)" offset="0.1875"/><stop stop-opacity="1" stop-color="rgb(86.2854%, 12.844849%, 13.198853%)" offset="0.203125"/><stop stop-opacity="1" stop-color="rgb(86.494446%, 13.163757%, 13.545227%)" offset="0.21875"/><stop stop-opacity="1" stop-color="rgb(86.705017%, 13.484192%, 13.890076%)" offset="0.234375"/><stop stop-opacity="1" stop-color="rgb(86.914062%, 13.803101%, 14.23645%)" offset="0.25"/><stop stop-opacity="1" stop-color="rgb(87.123108%, 14.122009%, 14.582825%)" offset="0.265625"/><stop stop-opacity="1" stop-color="rgb(87.332153%, 14.440918%, 14.927673%)" offset="0.28125"/><stop stop-opacity="1" stop-color="rgb(87.542725%, 14.759827%, 15.274048%)" offset="0.296875"/><stop stop-opacity="1" stop-color="rgb(87.75177%, 15.078735%, 15.618896%)" offset="0.3125"/><stop stop-opacity="1" stop-color="rgb(87.960815%, 15.39917%, 15.965271%)" offset="0.328125"/><stop stop-opacity="1" stop-color="rgb(88.171387%, 15.718079%, 16.311646%)" offset="0.34375"/><stop stop-opacity="1" stop-color="rgb(88.380432%, 16.036987%, 16.656494%)" offset="0.359375"/><stop stop-opacity="1" stop-color="rgb(88.589478%, 16.355896%, 17.002869%)" offset="0.375"/><stop stop-opacity="1" stop-color="rgb(88.798523%, 16.674805%, 17.349243%)" offset="0.390625"/><stop stop-opacity="1" stop-color="rgb(89.009094%, 16.995239%, 17.694092%)" offset="0.40625"/><stop stop-opacity="1" stop-color="rgb(89.21814%, 17.314148%, 18.040466%)" offset="0.421875"/><stop stop-opacity="1" stop-color="rgb(89.427185%, 17.633057%, 18.385315%)" offset="0.4375"/><stop stop-opacity="1" stop-color="rgb(89.63623%, 17.951965%, 18.731689%)" offset="0.453125"/><stop stop-opacity="1" stop-color="rgb(89.846802%, 18.270874%, 19.078064%)" offset="0.46875"/><stop stop-opacity="1" stop-color="rgb(90.055847%, 18.589783%, 19.422913%)" offset="0.484375"/><stop stop-opacity="1" stop-color="rgb(90.264893%, 18.910217%, 19.769287%)" offset="0.5"/><stop stop-opacity="1" stop-color="rgb(90.475464%, 19.229126%, 20.114136%)" offset="0.515625"/><stop stop-opacity="1" stop-color="rgb(90.684509%, 19.548035%, 20.46051%)" offset="0.53125"/><stop stop-opacity="1" stop-color="rgb(90.893555%, 19.866943%, 20.806885%)" offset="0.546875"/><stop stop-opacity="1" stop-color="rgb(91.1026%, 20.185852%, 21.151733%)" offset="0.5625"/><stop stop-opacity="1" stop-color="rgb(91.313171%, 20.506287%, 21.498108%)" offset="0.578125"/><stop stop-opacity="1" stop-color="rgb(91.522217%, 20.825195%, 21.844482%)" offset="0.59375"/><stop stop-opacity="1" stop-color="rgb(91.731262%, 21.144104%, 22.189331%)" offset="0.609375"/><stop stop-opacity="1" stop-color="rgb(91.941833%, 21.463013%, 22.535706%)" offset="0.625"/><stop stop-opacity="1" stop-color="rgb(92.150879%, 21.781921%, 22.880554%)" offset="0.640625"/><stop stop-opacity="1" stop-color="rgb(92.359924%, 22.102356%, 23.226929%)" offset="0.65625"/><stop stop-opacity="1" stop-color="rgb(92.56897%, 22.421265%, 23.573303%)" offset="0.671875"/><stop stop-opacity="1" stop-color="rgb(92.779541%, 22.740173%, 23.918152%)" offset="0.6875"/><stop stop-opacity="1" stop-color="rgb(92.988586%, 23.059082%, 24.264526%)" offset="0.703125"/><stop stop-opacity="1" stop-color="rgb(93.197632%, 23.377991%, 24.610901%)" offset="0.71875"/><stop stop-opacity="1" stop-color="rgb(93.406677%, 23.696899%, 24.95575%)" offset="0.734375"/><stop stop-opacity="1" stop-color="rgb(93.617249%, 24.017334%, 25.302124%)" offset="0.75"/><stop stop-opacity="1" stop-color="rgb(93.826294%, 24.336243%, 25.646973%)" offset="0.765625"/><stop stop-opacity="1" stop-color="rgb(94.035339%, 24.655151%, 25.993347%)" offset="0.78125"/><stop stop-opacity="1" stop-color="rgb(94.245911%, 24.97406%, 26.339722%)" offset="0.796875"/><stop stop-opacity="1" stop-color="rgb(94.454956%, 25.292969%, 26.68457%)" offset="0.8125"/><stop stop-opacity="1" stop-color="rgb(94.664001%, 25.613403%, 27.030945%)" offset="0.828125"/><stop stop-opacity="1" stop-color="rgb(94.873047%, 25.932312%, 27.375793%)" offset="0.84375"/><stop stop-opacity="1" stop-color="rgb(95.083618%, 26.251221%, 27.722168%)" offset="0.859375"/><stop stop-opacity="1" stop-color="rgb(95.292664%, 26.570129%, 28.068542%)" offset="0.875"/><stop stop-opacity="1" stop-color="rgb(95.501709%, 26.889038%, 28.413391%)" offset="0.890625"/><stop stop-opacity="1" stop-color="rgb(95.71228%, 27.207947%, 28.759766%)" offset="0.90625"/><stop stop-opacity="1" stop-color="rgb(95.921326%, 27.528381%, 29.10614%)" offset="0.921875"/><stop stop-opacity="1" stop-color="rgb(96.063232%, 27.74353%, 29.338074%)" offset="0.9375"/><stop stop-opacity="1" stop-color="rgb(96.099854%, 27.799988%, 29.399109%)" offset="1"/></linearGradient></defs><rect x="-81" width="972" fill="#ffffff" y="-80.999999" height="971.999992" fill-opacity="1"/><rect x="-81" width="972" fill="#ffffff" y="-80.999999" height="971.999992" fill-opacity="1"/><path fill="#000000" d="M 248.359375 636.203125 C 268.921875 585.335938 289.464844 534.46875 310.023438 483.621094 C 342.496094 403.285156 374.964844 322.929688 407.433594 242.59375 C 414.917969 224.058594 422.402344 205.542969 429.90625 187.011719 C 412.089844 189.328125 394.277344 191.667969 376.464844 193.988281 C 398.019531 244.757812 419.554688 295.507812 441.109375 346.277344 C 475.277344 426.789062 509.460938 507.300781 543.625 587.8125 C 551.460938 606.265625 559.296875 624.742188 567.128906 643.199219 C 573.308594 657.738281 594.746094 660.933594 607.121094 653.683594 C 622.167969 644.875 623.804688 628.289062 617.609375 613.691406 C 596.050781 562.921875 574.515625 512.171875 552.960938 461.402344 C 518.796875 380.890625 484.613281 300.378906 450.445312 219.871094 C 442.613281 201.414062 434.777344 182.9375 426.941406 164.480469 C 422.480469 153.976562 407.960938 149.160156 397.804688 150.527344 C 385.429688 152.183594 378.003906 160.328125 373.503906 171.457031 C 352.941406 222.324219 332.398438 273.191406 311.835938 324.039062 C 279.367188 404.375 246.898438 484.730469 214.429688 565.066406 C 206.945312 583.601562 199.460938 602.117188 191.957031 620.652344 C 186.207031 634.859375 198.195312 653.394531 212.382812 656.609375 C 229.339844 660.488281 242.222656 651.425781 248.359375 636.203125 Z M 248.359375 636.203125 " fill-opacity="1" fill-rule="nonzero"/><g clip-path="url(#e52d701198)"><g clip-path="url(#8182167bba)"><path fill="url(#17510eddaa)" d="M 339.023438 410.761719 L 339.023438 542.761719 L 471.023438 542.761719 L 471.023438 410.761719 Z M 339.023438 410.761719 " fill-rule="nonzero"/></g></g></svg>