<svg xmlns="http://www.w3.org/2000/svg" xmlns:xlink="http://www.w3.org/1999/xlink" width="1080" zoomAndPan="magnify" viewBox="0 0 810 809.999993" height="1080" preserveAspectRatio="xMidYMid meet" version="1.0"><path fill="#c49102" d="M 645.539062 617.664062 C 632.792969 617.664062 622.460938 628 622.460938 640.746094 C 621.003906 715.382812 511.496094 727.765625 491.792969 655.957031 C 491.792969 655.960938 431.410156 422.21875 431.410156 422.21875 L 646.667969 124.664062 C 663.933594 100.054688 627.617188 73.160156 609.273438 97.617188 C 609.273438 97.617188 416.421875 364.199219 416.421875 364.199219 L 366.480469 170.882812 C 330.257812 44.054688 142.191406 70.605469 144.957031 203.351562 C 147.527344 237.722656 195.394531 231.710938 191.117188 197.625 C 192.5625 122.996094 302.089844 110.628906 321.785156 182.425781 C 321.785156 182.421875 381.289062 412.765625 381.289062 412.765625 L 163.574219 713.71875 C 146.304688 738.285156 182.574219 765.238281 200.96875 740.765625 C 200.96875 740.765625 396.277344 470.785156 396.277344 470.785156 L 447.097656 667.511719 C 459.707031 716.265625 504.550781 750.324219 556.15625 750.324219 C 618.164062 750.324219 668.621094 701.164062 668.621094 640.746094 C 668.621094 628 658.289062 617.664062 645.539062 617.664062 Z M 645.539062 617.664062 " fill-opacity="1" fill-rule="nonzero"/></svg>