<svg xmlns="http://www.w3.org/2000/svg" xmlns:xlink="http://www.w3.org/1999/xlink" width="1080" zoomAndPan="magnify" viewBox="0 0 810 809.999993" height="1080" preserveAspectRatio="xMidYMid meet" version="1.0"><rect x="-81" width="972" fill="#ffffff" y="-80.999999" height="971.999992" fill-opacity="1"/><rect x="-81" width="972" fill="#ffffff" y="-80.999999" height="971.999992" fill-opacity="1"/><path fill="#000000" d="M 248.359375 636.203125 C 268.921875 585.335938 289.464844 534.46875 310.023438 483.621094 C 342.496094 403.285156 374.964844 322.929688 407.433594 242.59375 C 414.917969 224.058594 422.402344 205.542969 429.90625 187.011719 C 412.089844 189.328125 394.277344 191.667969 376.464844 193.988281 C 398.019531 244.757812 419.554688 295.507812 441.109375 346.277344 C 475.277344 426.789062 509.460938 507.300781 543.625 587.8125 C 551.460938 606.265625 559.296875 624.742188 567.128906 643.199219 C 573.308594 657.738281 594.746094 660.933594 607.121094 653.683594 C 622.167969 644.875 623.804688 628.289062 617.609375 613.691406 C 596.050781 562.921875 574.515625 512.171875 552.960938 461.402344 C 518.796875 380.890625 484.613281 300.378906 450.445312 219.871094 C 442.613281 201.414062 434.777344 182.9375 426.941406 164.480469 C 422.480469 153.976562 407.960938 149.160156 397.804688 150.527344 C 385.429688 152.183594 378.003906 160.328125 373.503906 171.457031 C 352.941406 222.324219 332.398438 273.191406 311.835938 324.039062 C 279.367188 404.375 246.898438 484.730469 214.429688 565.066406 C 206.945312 583.601562 199.460938 602.117188 191.957031 620.652344 C 186.207031 634.859375 198.195312 653.394531 212.382812 656.609375 C 229.339844 660.488281 242.222656 651.425781 248.359375 636.203125 Z M 248.359375 636.203125 " fill-opacity="1" fill-rule="nonzero"/></svg>