<svg xmlns="http://www.w3.org/2000/svg" xmlns:xlink="http://www.w3.org/1999/xlink" width="1080" zoomAndPan="magnify" viewBox="0 0 810 809.999993" height="1080" preserveAspectRatio="xMidYMid meet" version="1.0"><defs><clipPath id="fbc519ad17"><path d="M 117 41 L 694 41 L 694 771.304688 L 117 771.304688 Z M 117 41 " clip-rule="nonzero"/></clipPath></defs><rect x="-81" width="972" fill="#ffffff" y="-80.999999" height="971.999992" fill-opacity="1"/><rect x="-81" width="972" fill="#ffffff" y="-80.999999" height="971.999992" fill-opacity="1"/><g clip-path="url(#fbc519ad17)"><path fill="#000000" d="M 688.507812 729.109375 C 684.824219 726.859375 681.929688 724.382812 678.570312 723.160156 C 665.527344 718.402344 661.410156 721.28125 660.539062 735.398438 C 660.1875 741.296875 660.425781 746.605469 653.253906 749.835938 C 647.785156 752.296875 644.585938 741.699219 639.664062 748.710938 C 637.460938 746.605469 634.953125 744.738281 633.148438 742.328125 C 631.269531 739.820312 629.789062 736.925781 628.597656 734.015625 C 616.3125 703.945312 604.121094 673.84375 591.914062 643.757812 C 581.070312 617.050781 570.183594 590.375 559.441406 563.617188 C 551.285156 543.292969 543.628906 522.761719 535.234375 502.546875 C 516.351562 457.140625 497.777344 411.570312 477.914062 366.59375 C 456.089844 317.183594 432.75 268.445312 410.523438 219.207031 C 402.59375 201.664062 396.082031 183.496094 388.699219 165.695312 C 386.511719 160.40625 383.617188 155.421875 379.417969 147.058594 C 372.519531 162.558594 366.230469 174.601562 361.679688 187.273438 C 343.84375 236.992188 326.792969 286.984375 308.941406 336.703125 C 300.464844 360.308594 290.460938 383.382812 281.839844 406.9375 C 275.070312 425.445312 269.921875 444.566406 263.039062 463.039062 C 249.753906 498.609375 235.972656 534 222.011719 569.3125 C 201.167969 622.003906 180.015625 674.585938 158.898438 727.164062 C 155.503906 735.589844 152.753906 744.675781 147.511719 751.863281 C 142.171875 759.195312 134.148438 764.566406 126.859375 771.175781 C 118.546875 764.035156 115.507812 755.898438 117.726562 745.398438 C 128.664062 693.636719 140.195312 642.136719 158.59375 592.273438 C 169.867188 561.738281 178.101562 530.058594 187.367188 498.785156 C 194.796875 473.734375 200.699219 448.183594 209.191406 423.515625 C 217.167969 400.34375 221.847656 376.339844 229.296875 353.121094 C 238.09375 325.65625 248.371094 298.65625 257.941406 271.433594 C 271.210938 233.679688 284.109375 195.78125 297.730469 158.152344 C 310.082031 124 324.574219 90.730469 340.996094 58.316406 C 342.203125 55.933594 343.679688 53.667969 345.191406 51.464844 C 353.605469 39.195312 361.164062 38.488281 370.445312 49.875 C 375.300781 55.839844 380.945312 58.71875 388.105469 61.707031 C 404.105469 68.398438 417.695312 77.371094 425.578125 95.796875 C 453.789062 161.660156 484.78125 226.316406 513.699219 291.871094 C 544.335938 361.351562 574.527344 431.058594 603.558594 501.214844 C 625.445312 554.117188 644.90625 608 666.105469 661.191406 C 673.761719 680.421875 683.167969 698.976562 692.0625 717.695312 C 694.28125 722.355469 694.363281 725.75 688.542969 729.140625 Z M 205.171875 583.027344 C 212.792969 575.824219 217.910156 567.429688 216.863281 554.535156 C 206.28125 562.414062 206.796875 573.152344 205.171875 583.027344 Z M 350.871094 183.027344 C 353.667969 175.730469 356.453125 168.429688 359.25 161.128906 C 350.644531 166.179688 347.011719 173.238281 350.871094 183.027344 Z M 273.332031 401.824219 C 274.21875 397.339844 275.101562 392.851562 276.003906 388.367188 C 268.234375 391.132812 265.582031 395.105469 273.332031 401.824219 Z M 370.171875 127.585938 C 369.042969 127.554688 367.902344 127.523438 366.777344 127.488281 C 364.484375 132.28125 365.132812 136.832031 368.722656 141.140625 C 369.316406 135.609375 369.738281 131.605469 370.171875 127.585938 Z M 161.90625 702.355469 C 160.492188 701.757812 159.074219 701.164062 157.644531 700.570312 C 156.453125 704.574219 155.265625 708.59375 154.058594 712.597656 C 154.992188 712.933594 155.941406 713.289062 156.871094 713.625 C 158.546875 709.878906 160.21875 706.117188 161.890625 702.371094 Z M 290.703125 352.992188 C 281.101562 355.160156 279.574219 357.945312 282.710938 364.9375 C 285.394531 360.917969 287.148438 358.296875 290.703125 352.992188 Z M 290.703125 352.992188 " fill-opacity="1" fill-rule="nonzero"/></g></svg>